# xmcd
#
# Track frame offsets:
#	150
#	22622
#	86906
#	165199
#	218475
#
# Disc length: 3403 seconds
#
# Revision: 0
# Processed by: cddbd v1.5.1PL2 Copyright (c) Steve Scherf et al.
# Submitted via: EasyCDDAExtractor 9.0.0.1
#
DISCID=2a0d4905
DTITLE=Phil Lesh and Friends - Tower Theatre 2-25-2006 (disk 2)
DYEAR=1900
DGENRE=
TTITLE0=Jam
TTITLE1=He's Gone
TTITLE2=Eyes of the World
TTITLE3=What Sin Replaces Love
TTITLE4=All Along the Watchtower
EXTD=
EXTT0=
EXTT1=
EXTT2=
EXTT3=
EXTT4=
PLAYORDER=
